# xmcd
#
# Track frame offsets:
#	150
#	14797
#	41937
#	71309
#	87595
#	113869
#	132692
#	160555
#
# Disc length: 2373 seconds
# Revision: 0
# Processed by: cddbd v1.5.2PL0 Copyright (c) Steve Scherf et al.
# Submitted via: dBpowerAMP V12.0
#
DISCID=70094308
DTITLE=First Love - Love At First Sight
DYEAR=1982
DGENRE=Soul
TTITLE0=Stop What 'Cha Doing
TTITLE1=Don't Give Up (On Our Love)
TTITLE2=Party Lights
TTITLE3=Don't Be Afraid
TTITLE4=Lady Marmalade/Creole Lady (Medley)
TTITLE5=The Love I Had
TTITLE6=It's A Mystery To Me
TTITLE7=My First Love
EXTD=
EXTT0=
EXTT1=
EXTT2=
EXTT3=
EXTT4=
EXTT5=
EXTT6=
EXTT7=
PLAYORDER=
